PathFileType	4	(X/Y/Z)	C:\Users\°ÂÌØÂü\Desktop\20210112\bx_n_10_502-Unnamed.trc
DataRate	CameraRate	NumFrames	NumMarkers	Units	OrigDataRate	OrigDataStartFrame	OrigNumFrames
50.00	50.00	       9	0	mm	50.00	237	       473
Frame#	Time	
		

237	4.720	-775.33929	295.72861	1545.91016	-617.60730	224.83458	824.28021	-724.99908	291.12286	876.30054	-845.00922	102.54623	1048.29749	-669.23651	116.18077	1366.16296	-726.58179	276.47580	746.77570	-750.30432	257.56610	643.26190	-777.90704	-52.15804	1547.48694	-612.02100	-1.25726	815.80695	-748.92267	254.19528	577.07800	-668.71112	18.39289	521.77838	-785.10510	263.23486	500.74710	-692.46063	212.90262	537.64417	-653.80377	250.91873	1073.92761	-711.59021	157.79225	218.82082	-768.91699	229.53314	203.96165	-882.45593	296.22400	144.77756	-672.25372	50.86765	161.61359	-674.50256	174.90054	160.69243	-592.47504	222.51231	175.45781	-661.24731	299.31274	156.28531	-624.60938	308.14935	157.90749	-555.88989	257.22592	164.14244	-527.91241	303.88394	146.30498	-822.97968	119.15837	1841.37256	-695.25964	77.61045	575.20062	-517.73615	-72.86246	142.86557	-550.00122	-31.54456	164.28754	-795.55243	179.26247	183.14865	-708.01056	152.02272	580.57086	-791.79883	38.17760	173.20566	-715.56488	67.77177	216.66545	-763.16498	-40.66032	489.75732	-597.85809	22.57925	170.69379	-758.31396	-21.02085	207.36526	-875.84631	-78.84808	141.09875	-693.46344	-65.28534	879.49353	-707.54553	-52.61977	762.72668	-607.82697	-76.97411	156.70973	-649.64246	-70.15452	160.45013										-717.67395	-29.71214	618.88739	-721.77997	-27.84834	570.89508	
238	4.740	-774.52142	294.71069	1546.18030	-618.02924	224.88527	824.19330	-725.62225	291.30698	876.59436	-845.14911	102.38191	1048.47852	-668.90778	115.94604	1365.84668	-726.97766	276.43149	747.02814	-750.97260	257.33163	643.04553	-776.83453	-53.20120	1547.15369	-612.16473	-1.44055	815.84216	-748.91278	254.13368	577.16168	-668.84235	18.13632	521.55878	-785.21991	263.30667	500.58450	-692.59802	212.97279	537.76996	-654.76093	251.08145	1073.96436	-711.55518	157.90479	218.78773	-768.90363	229.61488	203.87946	-882.42657	296.15445	144.70587	-672.25372	50.86765	161.61359	-674.50256	174.90054	160.69243	-592.58502	222.43175	175.32303	-661.30457	299.50055	156.30856	-624.56812	308.03653	157.85851	-555.93982	257.15317	164.26476	-527.91241	303.88394	146.30498	-821.35931	118.19937	1841.81189	-695.42804	77.45935	575.28271	-517.85602	-72.97543	142.95665	-549.99847	-31.45098	164.17230	-795.42816	179.46509	183.29991				-791.95831	38.00975	173.27052	-715.56488	67.77177	216.66545	-763.12946	-40.83542	489.74097	-598.01343	22.46633	170.88184	-758.27612	-21.20897	207.45624	-875.87335	-78.57735	141.34627	-693.54022	-65.20566	879.47363	-707.54382	-52.68953	762.68707	-607.82697	-76.97411	156.70973	-649.70746	-70.18632	160.44943										-718.02307	-29.88754	618.82458	-721.90125	-27.94337	570.75781	
239	4.760	-773.82471	294.13940	1546.46094	-618.49194	224.70798	824.25433	-726.01483	291.27722	876.87054	-845.33423	102.13022	1048.71448	-668.52545	115.46567	1365.71436	-727.26038	276.32629	746.92920	-751.23688	257.42416	643.05682	-775.69739	-54.30360	1546.81458	-612.31067	-1.44818	815.79761	-749.31836	253.72546	576.92999	-668.92932	18.03317	521.55408	-785.43677	262.92606	500.42102	-693.04852	212.71773	537.93738	-655.04089	250.82739	1073.76025	-711.57538	157.86584	218.87979	-768.91095	229.53085	204.00941	-882.52521	296.03839	144.54327	-672.32843	50.54657	161.87390	-674.47736	174.97354	160.76726	-592.48480	222.66040	175.63020	-661.25360	299.64716	156.17209	-624.63062	308.26089	158.02620	-555.98553	257.14545	164.18440	-527.95282	303.86493	146.24185	-819.51849	117.22663	1841.99744	-695.79968	77.51357	575.13440	-517.85602	-72.97543	142.95665	-550.07172	-31.59618	164.35519	-795.55243	179.26247	183.14865	-708.32904	151.90913	580.64392	-791.93488	38.11742	173.21484	-715.76636	67.49581	216.99217	-763.34863	-40.75468	489.66678	-598.00574	22.28229	171.00073	-758.42047	-21.46949	207.53743	-875.71326	-78.92544	141.33623	-693.68518	-65.32857	879.54230	-707.94250	-52.91667	762.72504	-607.79688	-77.09752	156.67072	-649.75372	-70.36405	160.54562										-718.29193	-30.33436	619.04053	-722.05304	-28.04276	570.63660	
240	4.780	-772.57935	293.29968	1546.66150	-618.97668	224.79509	824.53400	-726.57959	290.91025	876.62769	-845.56677	101.70811	1048.99609	-667.46667	114.93575	1365.70007	-727.71777	276.09076	746.75629	-751.47925	257.59506	643.31995	-774.38470	-55.33749	1546.64453	-612.47479	-1.39302	815.73645	-749.78760	253.50314	576.67761	-669.15704	17.92086	521.56592	-786.01056	263.03885	500.53723	-693.43719	212.86230	537.85004	-655.01404	250.89009	1073.65308	-711.56140	158.01108	218.94608	-769.00177	229.68173	204.06087	-882.57153	296.25580	144.69826	-672.32843	50.54657	161.87390	-674.51624	174.83890	161.00879	-592.52997	222.60936	175.71541	-661.37616	299.63205	156.18671	-624.46674	308.32364	157.75002	-556.08063	257.33441	164.24565	-527.90741	303.94724	146.28511	-817.11206	116.15915	1842.49487	-696.43671	77.14999	574.88385	-517.87549	-72.88341	142.85062	-550.18713	-31.64836	164.48396	-795.67242	179.27098	183.03616	-708.55579	152.08832	580.29187	-792.05298	37.98273	173.19116	-715.79913	67.62189	216.86160	-763.39551	-40.98553	489.68658	-597.94678	22.15910	171.38045	-758.56451	-21.53464	207.57806	-875.60840	-78.80363	141.39221	-693.78754	-65.32731	879.69495	-708.18213	-53.28633	762.99933	-607.80737	-77.04166	156.70758	-649.81006	-70.12183	160.33974										-718.43140	-30.31255	619.10663	-722.04822	-28.14531	570.84735	
241	4.800	-771.70532	292.44849	1547.18054	-619.09875	224.83662	824.51086	-726.87274	290.83264	876.82782	-845.78784	101.72472	1049.22864	-667.13129	114.71429	1365.46533	-728.21454	276.15753	746.81152	-751.64117	257.67804	643.29395	-772.95465	-56.33095	1546.25476	-612.87775	-1.42768	815.44708	-750.36981	253.52855	576.83868	-669.37085	17.91737	521.60583	-786.31903	263.14447	500.55042	-693.56830	212.60252	537.78448	-655.12097	250.96970	1073.91235	-711.50671	158.11322	218.90048	-768.98724	229.76935	203.84760	-882.39569	296.08740	144.68922	-672.32843	50.54657	161.87390	-674.31305	174.95659	160.98201	-592.49231	222.75383	175.75624	-661.45801	299.77533	156.16971	-624.52771	308.34045	158.05254	-556.21075	257.32037	164.72029	-527.96613	303.78714	146.27182	-814.16528	114.86516	1842.78943	-696.67346	77.24158	575.04126	-517.83124	-72.90398	142.84503	-550.14673	-31.64816	164.33330	-795.67242	179.27098	183.03616	-708.91595	152.06131	580.23328	-792.10107	38.01196	173.19490	-715.76636	67.49581	216.99217	-763.83734	-41.35201	489.70847	-597.78638	22.06280	171.39594	-758.64203	-21.49176	207.83559	-875.95648	-78.79716	141.44162	-693.94379	-65.51078	879.49548	-708.40607	-53.35695	762.91650	-607.82697	-76.97411	156.70973	-649.69061	-70.28648	160.42850										-718.70831	-30.48558	618.86481	-722.22577	-28.43547	571.20422	
242	4.820	-770.13586	291.37289	1547.58533	-619.46649	225.16092	824.30878	-727.21503	290.75922	876.83240	-845.65466	101.41888	1049.41956	-666.45520	114.14666	1365.11414	-728.54907	276.15121	746.64923	-752.09766	257.58234	643.47113	-771.39124	-56.89422	1545.92053	-612.76355	-1.30322	815.70752	-750.46979	253.63306	576.96942	-669.75641	18.20468	521.37103	-786.47742	263.09784	500.50851	-693.81378	212.68619	538.02661	-655.43347	250.75398	1073.86414	-711.51843	158.17567	219.02771	-769.01587	229.85419	203.89371	-882.65210	296.24820	144.75827	-672.40771	50.91860	162.21927	-674.45221	175.04652	160.84209	-592.64532	222.83296	175.66507	-661.56152	299.81918	156.07312	-624.62793	308.40414	157.91269	-555.98383	257.34421	164.22749	-527.83594	304.06683	146.39394	-810.42883	113.38718	1843.36316	-696.83417	77.07884	575.19025	-517.86835	-73.01524	142.82573	-550.12994	-31.59464	164.30913	-795.67242	179.27098	183.03616	-708.88910	151.85481	580.46442	-792.13129	38.02257	173.13612	-715.79913	67.62189	216.86160	-763.84662	-41.18573	489.33658	-598.04901	22.18639	171.13330	-758.38092	-21.34316	207.37386	-875.95648	-78.79716	141.44162	-694.09351	-65.34726	879.36499	-708.66022	-53.34076	762.83154	-607.82697	-76.97411	156.70973	-649.86060	-70.12026	160.33653										-718.72150	-30.39987	618.92358	-722.33600	-28.34478	571.19385	
243	4.840	-768.47540	290.73691	1547.97656	-619.78638	225.09259	824.02625	-727.74585	290.70255	876.65778	-845.96008	101.18533	1049.88452	-665.42773	113.24810	1364.78101	-729.06628	276.28754	746.86993	-752.47546	257.38809	643.30182	-769.77393	-58.11797	1545.59448	-613.26941	-1.37131	815.53888	-750.45575	253.49681	576.99945	-669.72479	18.10119	521.52930	-786.98938	262.76419	500.18405	-693.98608	212.64659	538.00897	-655.28302	250.75780	1073.79651	-711.40173	158.20885	219.34419	-769.01587	229.85419	203.89371	-882.46844	296.17334	144.71791	-672.32843	50.54657	161.87390	-674.45221	175.04652	160.84209	-592.64429	222.74397	175.84096	-661.34637	299.79669	156.24141	-624.60132	308.32700	157.99602	-556.25378	257.66544	164.84753	-528.04340	304.00034	146.24974	-806.23303	112.25532	1843.96362	-696.93494	76.86646	574.97021	-517.85602	-72.97543	142.95665	-550.20569	-31.41580	164.17657	-795.74976	179.29550	183.02576	-709.15222	151.92928	580.32568	-792.10724	37.99337	173.17247	-715.79913	67.62189	216.86160	-764.20447	-41.37715	489.67584	-597.92065	22.15534	171.29150	-758.73987	-21.49947	207.55966	-876.05762	-78.85286	141.06390	-694.54114	-65.18458	879.09058	-708.73938	-53.65989	763.03186	-607.82697	-76.97411	156.70973	-649.69061	-70.28648	160.42850										-718.86298	-30.18026	618.97534	-722.43915	-28.40423	570.88062	
244	4.860	-766.64703	289.94720	1548.46118	-620.03357	225.08507	824.17285	-727.95837	290.38370	876.51483	-846.26709	100.99189	1050.17236	-664.77307	113.13290	1364.49939	-729.33270	276.04565	746.67438	-752.74707	257.19122	643.23865	-767.73468	-58.84363	1545.40454	-613.21484	-1.37029	815.44928	-750.66058	253.83734	577.04498	-669.85846	18.16343	521.39789	-787.20532	262.73672	500.51587	-694.06525	212.82489	537.85657	-655.59827	250.60057	1073.68835	-711.40173	158.20885	219.34419	-769.05328	229.68364	203.84361	-882.61194	296.15863	144.60854	-672.32843	50.54657	161.87390	-674.45221	175.04652	160.84209	-592.74268	222.72311	175.84857	-661.53394	299.94638	156.01457	-624.57422	308.28763	158.09337	-556.32520	257.37796	164.62047	-527.99011	303.90024	146.22087	-801.64685	111.00574	1844.65149	-696.83588	77.03861	575.10065	-517.85602	-72.97543	142.95665	-550.10034	-31.56231	164.28261	-795.67242	179.27098	183.03616	-709.12537	151.72276	580.55676	-792.14038	37.94591	173.06425	-715.91388	67.59607	216.72278	-764.27203	-41.23230	489.29941	-597.87579	22.05602	171.38951	-758.54865	-21.55479	207.44041	-875.85522	-78.73365	141.22168	-694.81396	-65.22598	878.85620	-708.90692	-53.53025	762.92841	-607.87146	-76.92422	156.66936	-649.70746	-70.18632	160.44943										-718.80560	-30.64381	619.29626	-722.68231	-28.34319	570.86188	
245	4.880	-764.84399	288.88785	1548.87195	-620.02057	224.89465	824.14502	-728.35388	290.54208	876.59943	-846.30597	100.88860	1050.43286	-663.49017	112.57290	1364.14709	-729.51129	275.81442	746.53918	-752.99353	257.24243	643.31287	-765.84290	-59.84599	1545.22034	-613.46631	-1.31650	815.50574	-750.81036	253.61826	577.06525	-669.80164	18.12989	521.58142	-787.40314	262.79858	500.51224	-694.16168	212.66711	538.02936	-655.59827	250.60057	1073.68835	-711.42328	158.18150	219.14465	-769.01587	229.85419	203.89371	-882.57715	296.08688	144.53578	-672.42987	51.00679	162.25769	-674.35187	174.82196	161.22353	-592.70544	222.89981	175.75850	-661.50494	300.01871	156.10231	-624.54492	308.35373	158.06317	-556.30261	257.58148	164.83412	-527.97681	303.97803	146.19090	-796.35754	109.76556	1845.51086	-697.12836	77.07916	575.30951	-517.76086	-72.93391	142.97720	-550.27405	-31.46231	164.33531	-795.80615	179.36089	183.07362	-709.64734	151.44618	580.14136	-792.10107	38.01196	173.19490	-715.76636	67.49581	216.99217	-764.72076	-41.12681	489.34561	-597.77570	22.07158	171.51836	-758.41406	-21.58133	207.43950	-876.06000	-79.00253	141.30368	-694.82800	-65.27550	878.87994	-708.99121	-53.45638	762.88690	-607.87146	-76.92422	156.66936	-649.84503	-70.14871	160.51788										-719.53326	-30.30194	618.86609	-722.72015	-28.31662	570.97864	
